<!-- Generated by IcoMoon.io -->
<svg version="1.1" xmlns="http://www.w3.org/2000/svg" width="32" height="32" viewBox="0 0 32 32">
<title>kolo-big</title>
<path fill="#fff" d="M29.385 18.191h-2.74v-3.564h1.388c0.297 0 0.539 0.053 0.727 0.159 0.179 0.098 0.328 0.243 0.43 0.42 0.103 0.179 0.156 0.382 0.154 0.589 0.002 0.259-0.084 0.512-0.246 0.714-0.155 0.204-0.373 0.351-0.62 0.417l0.907 1.265zM26.835 14.939v1.839h1.316l-1.316-1.839zM26.835 18.002h2.192l-0.748-1.040-0.159 0.005h-1.285v1.035zM26.968 14.816l1.393 1.946c0.224-0.045 0.425-0.166 0.568-0.343 0.148-0.174 0.228-0.396 0.225-0.625 0.002-0.18-0.046-0.357-0.138-0.512-0.092-0.154-0.228-0.277-0.389-0.353-0.15-0.075-0.347-0.113-0.589-0.113h-1.070z"></path>
</svg>
