<!-- Generated by IcoMoon.io -->
<svg version="1.1" xmlns="http://www.w3.org/2000/svg" width="32" height="32" viewBox="0 0 32 32">
<title>logo1x-comp</title>
<path fill="#000" opacity="0.03" d="M0.067 29.456c4.194 0 8.346-0.696 12.22-2.049s7.395-3.335 10.36-5.834c2.965-2.499 5.317-5.466 6.922-8.731s2.431-6.765 2.431-10.299h-31.933v26.912z"></path>
<path fill="#fff" d="M11.035 14.766c-0.171-0.475-0.523-0.713-1.055-0.713h-0.168v2.93h0.168c0.412 0 0.715-0.162 0.911-0.487 0.165-0.277 0.248-0.629 0.248-1.057-0-0.255-0.035-0.479-0.104-0.674z"></path>
<path fill="#fff" d="M8.152 14.801c0.171 0.475 0.523 0.713 1.055 0.713h0.168v-2.93h-0.168c-0.412 0-0.715 0.162-0.911 0.487-0.165 0.277-0.247 0.629-0.247 1.057 0 0.254 0.034 0.479 0.103 0.674z"></path>
<path fill="#fff" d="M5.356 7.903h2.236v0.776h-1.433v0.388h1.191v0.736h-1.191v0.392h1.433v0.776h-2.236v-3.069z"></path>
<path fill="#fff" d="M8.716 7.9h2.893l-1.446 3.135-1.446-3.135zM10.162 10.647l1.195-2.584h-2.386l1.191 2.584z"></path>
<path fill="#fff" d="M12.764 7.903h2.236v0.776h-1.433v0.388h1.191v0.736h-1.191v0.392h1.433v0.776h-2.236v-3.069z"></path>
<path fill="#fff" d="M16.375 10.968v-3.068h0.172l2.143 2.086v-2.086h0.163v3.069l-2.478-0.001z"></path>
<path fill="#fff" d="M21.195 10.972v-2.293h-1.16v-0.776h2.478v0.776h-1.16v2.293h-0.159z"></path>
<path fill="#fff" d="M6.674 13.195c0.194 0 0.348 0.029 0.463 0.088 0.132 0.064 0.242 0.165 0.319 0.29s0.116 0.269 0.113 0.416c0.001 0.141-0.039 0.28-0.115 0.399-0.077 0.122-0.185 0.222-0.313 0.289 0.159 0.056 0.298 0.157 0.401 0.291 0.107 0.132 0.164 0.297 0.163 0.467 0.001 0.149-0.039 0.294-0.117 0.421-0.076 0.126-0.183 0.23-0.311 0.302-0.068 0.036-0.141 0.063-0.216 0.079-0.079 0.018-0.185 0.026-0.317 0.026h-1.358v-3.069h1.288z"></path>
<path fill="#fff" d="M11.844 16.041c-0.231-0.201-0.345-0.503-0.342-0.906h0.719c-0.003 0.168 0.047 0.295 0.15 0.384s0.247 0.132 0.432 0.132c0.153 0 0.273-0.025 0.362-0.075s0.132-0.126 0.132-0.229c0-0.085-0.045-0.147-0.134-0.185-0.086-0.037-0.175-0.064-0.267-0.082-0.088-0.016-0.143-0.026-0.163-0.029-0.2-0.037-0.396-0.091-0.586-0.162-0.16-0.059-0.302-0.158-0.415-0.287s-0.168-0.3-0.168-0.512 0.056-0.392 0.168-0.54c0.112-0.148 0.261-0.259 0.448-0.333 0.195-0.075 0.402-0.112 0.611-0.11 0.268 0 0.499 0.050 0.695 0.15s0.349 0.251 0.461 0.454c0.052 0.086 0.086 0.181 0.101 0.28 0.011 0.087 0.017 0.175 0.018 0.262h-0.719c0-0.159-0.043-0.276-0.128-0.351s-0.218-0.112-0.397-0.112c-0.144 0-0.256 0.025-0.335 0.075s-0.119 0.118-0.119 0.203c0 0.094 0.053 0.163 0.159 0.207 0.13 0.051 0.264 0.091 0.401 0.119 0.265 0.053 0.471 0.104 0.62 0.152 0.15 0.049 0.283 0.139 0.386 0.258 0.109 0.123 0.163 0.297 0.163 0.52 0 0.212-0.059 0.394-0.176 0.547s-0.273 0.27-0.465 0.351c-0.198 0.082-0.41 0.123-0.624 0.121-0.426-0.001-0.755-0.102-0.986-0.303z"></path>
<path fill="#fff" d="M15.903 16.264v-2.293h-1.16v-0.776h2.478v0.776h-1.16v2.293h-0.159z"></path>
<path fill="#fff" d="M18.055 13.195h2.236v0.776h-1.433v0.388h1.191v0.736h-1.191v0.392h1.433v0.776h-2.236v-3.069z"></path>
<path fill="#fff" d="M23.602 16.264h-2.359v-3.069h1.195c0.256 0 0.464 0.046 0.626 0.137 0.154 0.084 0.283 0.209 0.37 0.362 0.089 0.154 0.134 0.329 0.132 0.507 0.002 0.223-0.073 0.44-0.212 0.615-0.133 0.175-0.321 0.302-0.534 0.359l0.781 1.089zM21.406 13.464v1.583h1.133l-1.133-1.583zM21.406 16.101h1.887l-0.644-0.895-0.137 0.004h-1.107v0.891zM21.521 13.358l1.199 1.676c0.193-0.039 0.366-0.143 0.489-0.295 0.127-0.15 0.196-0.341 0.194-0.538 0.002-0.155-0.040-0.308-0.119-0.441s-0.196-0.238-0.335-0.304c-0.129-0.065-0.298-0.097-0.507-0.097h-0.922z"></path>
</svg>
