<!-- Generated by IcoMoon.io -->
<svg version="1.1" xmlns="http://www.w3.org/2000/svg" width="32" height="32" viewBox="0 0 32 32">
<title>logo1x-plan</title>
<path fill="#000" opacity="0.03" d="M-0.089 29.497c4.214 0 8.387-0.698 12.28-2.055s7.431-3.345 10.411-5.852c2.98-2.507 5.343-5.482 6.956-8.758s2.443-6.785 2.443-10.33h-32.089v26.994z"></path>
<path fill="#fff" d="M12.537 16.381c-0.167-0.465-0.512-0.698-1.034-0.698h-0.165v2.871h0.165c0.403 0 0.701-0.159 0.893-0.477 0.162-0.271 0.243-0.617 0.243-1.036-0-0.249-0.034-0.469-0.102-0.66z"></path>
<path fill="#fff" d="M9.712 16.415c0.168 0.465 0.512 0.698 1.034 0.698h0.165v-2.871h-0.165c-0.403 0-0.701 0.159-0.893 0.477-0.161 0.271-0.242 0.616-0.242 1.036 0 0.249 0.034 0.469 0.101 0.66z"></path>
<path fill="#fff" d="M6.972 9.657h2.19v0.76h-1.404v0.38h1.166v0.721h-1.166v0.384h1.404v0.76h-2.19v-3.007z"></path>
<path fill="#fff" d="M10.264 9.654h2.834l-1.417 3.072-1.417-3.072zM11.681 12.345l1.171-2.532h-2.337l1.166 2.532z"></path>
<path fill="#fff" d="M14.23 9.657h2.19v0.76h-1.404v0.38h1.166v0.722h-1.166v0.384h1.404v0.76h-2.19v-3.007z"></path>
<path fill="#fff" d="M17.768 12.66v-3.006h0.169l2.1 2.043v-2.043h0.16v3.007l-2.428-0.001z"></path>
<path fill="#fff" d="M22.49 12.664v-2.247h-1.136v-0.76h2.428v0.76h-1.136v2.247h-0.156z"></path>
<path fill="#fff" d="M8.264 14.842c0.19 0 0.341 0.029 0.454 0.086 0.129 0.063 0.237 0.161 0.312 0.284s0.113 0.264 0.111 0.407c0.001 0.138-0.038 0.274-0.112 0.391-0.075 0.12-0.181 0.218-0.307 0.283 0.156 0.055 0.292 0.154 0.393 0.285 0.104 0.13 0.161 0.291 0.16 0.458 0.001 0.146-0.039 0.288-0.114 0.413-0.074 0.123-0.179 0.225-0.305 0.296-0.067 0.036-0.138 0.062-0.212 0.078-0.078 0.017-0.181 0.026-0.311 0.026h-1.331v-3.007h1.262z"></path>
<path fill="#fff" d="M13.329 17.63c-0.226-0.197-0.338-0.493-0.335-0.888h0.704c-0.003 0.164 0.046 0.289 0.147 0.376s0.242 0.13 0.423 0.13c0.15 0 0.268-0.024 0.354-0.073s0.13-0.124 0.13-0.225c0-0.084-0.044-0.144-0.132-0.181-0.084-0.036-0.172-0.063-0.261-0.080-0.086-0.016-0.14-0.025-0.16-0.029-0.196-0.036-0.388-0.089-0.575-0.158-0.157-0.058-0.296-0.155-0.406-0.281s-0.164-0.294-0.164-0.501 0.055-0.384 0.164-0.529c0.109-0.145 0.256-0.254 0.438-0.326 0.191-0.073 0.394-0.11 0.598-0.108 0.262 0 0.489 0.049 0.68 0.147s0.342 0.246 0.451 0.445c0.051 0.084 0.085 0.177 0.099 0.274 0.011 0.085 0.017 0.171 0.017 0.257h-0.704c0-0.156-0.042-0.27-0.125-0.343s-0.213-0.11-0.389-0.11c-0.141 0-0.251 0.024-0.328 0.073s-0.117 0.115-0.117 0.199c0 0.092 0.052 0.16 0.156 0.203 0.127 0.050 0.259 0.089 0.393 0.117 0.259 0.052 0.462 0.102 0.607 0.149 0.147 0.048 0.277 0.136 0.378 0.253 0.107 0.121 0.16 0.291 0.16 0.51 0 0.207-0.058 0.386-0.173 0.536s-0.267 0.264-0.456 0.343c-0.194 0.080-0.402 0.121-0.611 0.119-0.418-0-0.739-0.099-0.966-0.297z"></path>
<path fill="#fff" d="M17.306 17.849v-2.247h-1.136v-0.76h2.428v0.76h-1.136v2.247h-0.156z"></path>
<path fill="#fff" d="M19.414 14.842h2.19v0.76h-1.404v0.38h1.166v0.721h-1.166v0.384h1.404v0.76h-2.19v-3.007z"></path>
<path fill="#fff" d="M24.849 17.849h-2.311v-3.007h1.171c0.251 0 0.455 0.045 0.614 0.134 0.151 0.082 0.277 0.205 0.363 0.354 0.087 0.151 0.131 0.323 0.13 0.497 0.002 0.219-0.071 0.432-0.207 0.603-0.131 0.172-0.314 0.296-0.523 0.352l0.765 1.067zM22.698 15.105v1.551h1.11l-1.11-1.551zM22.698 17.689h1.849l-0.631-0.877-0.134 0.004h-1.084v0.873zM22.81 15.001l1.175 1.642c0.189-0.038 0.358-0.14 0.479-0.289 0.125-0.147 0.192-0.334 0.19-0.527 0.002-0.152-0.039-0.302-0.117-0.432s-0.192-0.233-0.328-0.298c-0.127-0.063-0.292-0.095-0.497-0.095h-0.903z"></path>
</svg>
