<!-- Generated by IcoMoon.io -->
<svg version="1.1" xmlns="http://www.w3.org/2000/svg" width="32" height="32" viewBox="0 0 32 32">
<title>logo1x-event</title>
<path fill="#000" opacity="0.03" d="M-0.15 29.458c4.202 0 8.362-0.696 12.244-2.049s7.409-3.335 10.38-5.835c2.971-2.499 5.328-5.467 6.936-8.732s2.436-6.766 2.436-10.3h-31.996v26.916z"></path>
<path fill="#fff" d="M12.44 16.38c-0.167-0.464-0.511-0.696-1.031-0.696h-0.164v2.863h0.164c0.402 0 0.699-0.158 0.89-0.475 0.161-0.27 0.242-0.615 0.242-1.033-0-0.249-0.034-0.468-0.101-0.658z"></path>
<path fill="#fff" d="M9.623 16.414c0.167 0.464 0.511 0.696 1.031 0.696h0.164v-2.863h-0.164c-0.402 0-0.699 0.158-0.89 0.475-0.161 0.27-0.241 0.615-0.241 1.033 0 0.248 0.034 0.468 0.101 0.658z"></path>
<path fill="#fff" d="M6.891 9.676h2.184v0.758h-1.4v0.379h1.163v0.719h-1.163v0.383h1.4v0.758h-2.184v-2.998z"></path>
<path fill="#fff" d="M10.174 9.672h2.826l-1.413 3.063-1.413-3.063zM11.587 12.356l1.167-2.524h-2.331l1.163 2.524z"></path>
<path fill="#fff" d="M14.128 9.676h2.184v0.758h-1.4v0.379h1.163v0.719h-1.163v0.383h1.4v0.758h-2.184v-2.998z"></path>
<path fill="#fff" d="M17.656 12.67v-2.997h0.168l2.094 2.038v-2.038h0.159v2.998l-2.421-0.001z"></path>
<path fill="#fff" d="M22.365 12.674v-2.24h-1.133v-0.758h2.421v0.758h-1.133v2.24h-0.155z"></path>
<path fill="#fff" d="M8.179 14.845c0.19 0 0.34 0.029 0.452 0.086 0.129 0.063 0.237 0.161 0.312 0.283s0.113 0.263 0.111 0.406c0.001 0.138-0.038 0.273-0.112 0.39-0.075 0.119-0.181 0.217-0.306 0.282 0.155 0.055 0.292 0.154 0.392 0.284 0.104 0.129 0.161 0.291 0.159 0.457 0.001 0.145-0.038 0.288-0.114 0.411-0.074 0.123-0.179 0.225-0.304 0.295-0.066 0.036-0.137 0.062-0.211 0.078-0.078 0.017-0.181 0.026-0.31 0.026h-1.327v-2.998h1.258z"></path>
<path fill="#fff" d="M13.23 17.626c-0.225-0.197-0.337-0.492-0.334-0.885h0.702c-0.003 0.164 0.046 0.289 0.146 0.375s0.241 0.129 0.422 0.129c0.149 0 0.267-0.024 0.353-0.073s0.129-0.123 0.129-0.224c0-0.083-0.044-0.144-0.131-0.181-0.084-0.036-0.171-0.063-0.261-0.080-0.086-0.016-0.139-0.025-0.159-0.029-0.195-0.036-0.387-0.089-0.573-0.158-0.156-0.058-0.295-0.154-0.405-0.28s-0.164-0.293-0.164-0.5 0.055-0.383 0.164-0.528c0.109-0.145 0.255-0.253 0.437-0.325 0.19-0.073 0.393-0.11 0.597-0.108 0.261 0 0.487 0.049 0.678 0.146s0.341 0.246 0.45 0.444c0.051 0.084 0.084 0.177 0.099 0.274 0.011 0.085 0.017 0.171 0.017 0.256h-0.702c0-0.155-0.042-0.269-0.125-0.342s-0.213-0.11-0.388-0.11c-0.141 0-0.25 0.024-0.327 0.073s-0.116 0.115-0.116 0.198c0 0.092 0.052 0.159 0.155 0.202 0.127 0.050 0.258 0.089 0.392 0.116 0.258 0.052 0.46 0.101 0.605 0.149 0.146 0.048 0.277 0.135 0.377 0.252 0.106 0.121 0.159 0.29 0.159 0.508 0 0.207-0.057 0.385-0.172 0.534s-0.266 0.264-0.454 0.343c-0.193 0.080-0.4 0.12-0.61 0.118-0.416-0-0.737-0.099-0.963-0.296z"></path>
<path fill="#fff" d="M17.195 17.843v-2.24h-1.133v-0.758h2.421v0.758h-1.133v2.24h-0.155z"></path>
<path fill="#fff" d="M19.297 14.845h2.184v0.758h-1.4v0.379h1.163v0.719h-1.163v0.383h1.4v0.758h-2.184v-2.998z"></path>
<path fill="#fff" d="M24.716 17.843h-2.305v-2.998h1.167c0.25 0 0.454 0.045 0.612 0.134 0.151 0.082 0.276 0.204 0.362 0.353 0.087 0.151 0.131 0.322 0.129 0.495 0.002 0.218-0.071 0.43-0.207 0.601-0.13 0.171-0.313 0.295-0.521 0.351l0.762 1.064zM22.571 15.108v1.546h1.107l-1.107-1.546zM22.571 17.684h1.844l-0.629-0.874-0.134 0.004h-1.081v0.87zM22.683 15.004l1.172 1.637c0.188-0.038 0.357-0.14 0.478-0.289 0.124-0.147 0.192-0.333 0.19-0.526 0.002-0.152-0.039-0.301-0.116-0.431s-0.191-0.233-0.327-0.297c-0.126-0.063-0.291-0.095-0.495-0.095h-0.9z"></path>
</svg>
